<svg xmlns="http://www.w3.org/2000/svg" width="20" height="20" viewBox="0 0 20 20"><defs><style>.a{fill:#6699e4;}.b{fill:#fff;}</style></defs><g transform="translate(-44 -549)"><path class="a" d="M19.683,9.04,10.433.173a.625.625,0,0,0-.865,0L.308,9.049A1.056,1.056,0,0,0,0,9.79a1.043,1.043,0,0,0,1.042,1.042H2.5v7.5A1.666,1.666,0,0,0,4.167,20H15.833A1.666,1.666,0,0,0,17.5,18.332v-7.5h1.458A1.043,1.043,0,0,0,20,9.79,1.064,1.064,0,0,0,19.683,9.04Zm0,0" transform="translate(44 549.001)"/><path class="b" d="M5.367,8H2.633a.5.5,0,0,1-.5-.5V5.866H.5a.5.5,0,0,1-.5-.5V2.633a.5.5,0,0,1,.5-.5H2.133V.5a.5.5,0,0,1,.5-.5H5.367a.5.5,0,0,1,.5.5V2.133H7.5a.5.5,0,0,1,.5.5V5.367a.5.5,0,0,1-.5.5H5.866V7.5A.5.5,0,0,1,5.367,8ZM4,5.392a.616.616,0,0,1,.278.066.624.624,0,0,0,.279.066.61.61,0,0,0,.257-.057.588.588,0,0,0,.33-.431A.6.6,0,0,0,4.8,4.382a.474.474,0,0,1-.245-.254.573.573,0,0,0-.551-.386H4a.589.589,0,0,0-.542.382.506.506,0,0,1-.252.256.6.6,0,0,0-.351.657.589.589,0,0,0,.331.431.608.608,0,0,0,.257.057.631.631,0,0,0,.278-.066A.62.62,0,0,1,4,5.392ZM5.364,3.384a.4.4,0,0,0-.2.057.7.7,0,0,0-.319.671.35.35,0,0,0,.186.274.31.31,0,0,0,.132.029.4.4,0,0,0,.2-.057.658.658,0,0,0,.256-.29.645.645,0,0,0,.062-.382A.347.347,0,0,0,5.5,3.413.3.3,0,0,0,5.364,3.384Zm-2.722,0a.308.308,0,0,0-.133.03.329.329,0,0,0-.168.194.614.614,0,0,0,.043.461.662.662,0,0,0,.257.29.4.4,0,0,0,.2.057.3.3,0,0,0,.132-.029.348.348,0,0,0,.186-.274A.651.651,0,0,0,3.1,3.73.547.547,0,0,0,2.642,3.383ZM4.62,2.475a.563.563,0,0,0-.475.465.7.7,0,0,0,.015.429.371.371,0,0,0,.247.237.315.315,0,0,0,.081.011.4.4,0,0,0,.26-.106.748.748,0,0,0,.2-.775.373.373,0,0,0-.251-.25A.311.311,0,0,0,4.62,2.475Zm-1.236,0a.314.314,0,0,0-.079.01.454.454,0,0,0-.288.472.739.739,0,0,0,.026.2.559.559,0,0,0,.475.464.291.291,0,0,0,.078-.01.347.347,0,0,0,.212-.169.668.668,0,0,0,.05-.5A.561.561,0,0,0,3.384,2.475Z" transform="translate(50 557)"/></g></svg>