<svg xmlns="http://www.w3.org/2000/svg" width="53" height="53" viewBox="0 0 53 53"><defs><style>.a{fill:#ecf5fe;}</style></defs><path class="a" d="M36.867,53H16.133a2,2,0,0,1-2-2V38.867H2a2,2,0,0,1-2-2V16.133a2,2,0,0,1,2-2H14.134V2a2,2,0,0,1,2-2H36.867a2,2,0,0,1,2,2V14.134H51a2,2,0,0,1,2,2V36.867a2,2,0,0,1-2,2H38.867V51A2,2,0,0,1,36.867,53ZM26.513,24.792a3.907,3.907,0,0,0-3.587,2.532,3.336,3.336,0,0,1-1.672,1.69,3.964,3.964,0,0,0-2.326,4.356,3.894,3.894,0,0,0,2.2,2.853,4,4,0,0,0,1.7.378,4.19,4.19,0,0,0,1.844-.436,4.119,4.119,0,0,1,3.689,0,4.122,4.122,0,0,0,1.848.434,4.017,4.017,0,0,0,1.7-.376A3.9,3.9,0,0,0,34.1,33.37a3.971,3.971,0,0,0-2.277-4.338,3.145,3.145,0,0,1-1.618-1.681,3.8,3.8,0,0,0-3.649-2.559Zm9.03-2.373a2.654,2.654,0,0,0-1.319.379,4.612,4.612,0,0,0-2.111,4.45,2.331,2.331,0,0,0,1.239,1.812,2.044,2.044,0,0,0,.872.193,2.64,2.64,0,0,0,1.319-.381,4.615,4.615,0,0,0,2.106-4.445A2.32,2.32,0,0,0,36.41,22.61,2.032,2.032,0,0,0,35.543,22.419Zm-18.043,0a2.039,2.039,0,0,0-.878.2c-1.321.632-1.685,2.539-.828,4.342a4.351,4.351,0,0,0,1.7,1.919,2.637,2.637,0,0,0,1.314.381,2.015,2.015,0,0,0,.872-.193,2.317,2.317,0,0,0,1.239-1.812,4.353,4.353,0,0,0-.411-2.531A3.625,3.625,0,0,0,17.5,22.415ZM30.616,16.4c-1.361,0-2.688,1.293-3.154,3.075a4.64,4.64,0,0,0,.1,2.839A2.464,2.464,0,0,0,29.2,23.89a1.991,1.991,0,0,0,.536.071,2.641,2.641,0,0,0,1.722-.706,4.952,4.952,0,0,0,1.337-5.13,2.479,2.479,0,0,0-1.664-1.659A2.061,2.061,0,0,0,30.616,16.4Zm-8.2,0a2.087,2.087,0,0,0-.52.066,3.011,3.011,0,0,0-1.905,3.126,5.051,5.051,0,0,0,.17,1.292c.462,1.78,1.786,3.073,3.148,3.073a1.931,1.931,0,0,0,.524-.067,2.458,2.458,0,0,0,1.625-1.584,4.632,4.632,0,0,0,.11-2.831C25.106,17.693,23.781,16.4,22.417,16.4Z" transform="translate(0 0)"/></svg>