<svg xmlns="http://www.w3.org/2000/svg" width="20.411" height="20.411" viewBox="0 0 20.411 20.411"><defs><style>.a{fill:#391d4b;}</style></defs><g transform="translate(-8 -7.357)"><path class="a" d="M13.875,28.141h8.392a5.881,5.881,0,0,0,5.875-5.875V16.812a.839.839,0,0,0-1.678,0v5.455a4.2,4.2,0,0,1-4.2,4.2H13.875a4.2,4.2,0,0,1-4.2-4.2V13.875a4.2,4.2,0,0,1,4.2-4.2h5.455a.839.839,0,1,0,0-1.678H13.875A5.881,5.881,0,0,0,8,13.875v8.392A5.881,5.881,0,0,0,13.875,28.141Z" transform="translate(0 -0.373)"/><path class="a" d="M22.86,17.881l-.212,2.334a1.293,1.293,0,0,0,1.287,1.41.856.856,0,0,0,.118-.005l2.333-.212a2.655,2.655,0,0,0,1.636-.767l6-6L36.3,12.368a2.1,2.1,0,0,0,0-2.967L34.867,7.97a2.1,2.1,0,0,0-2.967,0l-2.271,2.27-6,6a2.655,2.655,0,0,0-.768,1.637ZM33.086,9.157a.42.42,0,0,1,.594,0l1.429,1.429a.42.42,0,0,1,0,.594l-1.084,1.084L32,10.241Zm-8.555,8.876a.977.977,0,0,1,.282-.6l6-6,2.023,2.023-6,6a.977.977,0,0,1-.6.282l-1.873.17Z" transform="translate(-8.498)"/></g></svg>