<svg xmlns="http://www.w3.org/2000/svg" width="20" height="20" viewBox="0 0 20 20"><defs><style>.a{fill:#559bea;}</style></defs><path class="a" d="M12.667,20H7.333a2,2,0,0,1-2-2V14.666H2a2,2,0,0,1-2-2V7.333a2,2,0,0,1,2-2H5.333V2a2,2,0,0,1,2-2h5.333a2,2,0,0,1,2,2V5.333H18a2,2,0,0,1,2,2v5.333a2,2,0,0,1-2,2H14.666V18A2,2,0,0,1,12.667,20ZM10,9.356a1.476,1.476,0,0,0-1.354.955,1.257,1.257,0,0,1-.631.638,1.5,1.5,0,0,0-.878,1.643,1.471,1.471,0,0,0,.829,1.077,1.52,1.52,0,0,0,.643.142,1.575,1.575,0,0,0,.7-.165,1.559,1.559,0,0,1,1.392,0,1.571,1.571,0,0,0,.7.164,1.52,1.52,0,0,0,.643-.141,1.47,1.47,0,0,0,.827-1.077,1.5,1.5,0,0,0-.859-1.636,1.188,1.188,0,0,1-.611-.635,1.432,1.432,0,0,0-1.377-.966Zm3.408-.9a1,1,0,0,0-.5.143,1.736,1.736,0,0,0-.8,1.679.878.878,0,0,0,.467.684.775.775,0,0,0,.329.072,1,1,0,0,0,.5-.143,1.738,1.738,0,0,0,.795-1.678.874.874,0,0,0-.467-.685A.767.767,0,0,0,13.412,8.46Zm-6.809,0a.769.769,0,0,0-.332.074,1.2,1.2,0,0,0-.312,1.639,1.648,1.648,0,0,0,.642.724,1,1,0,0,0,.5.143.763.763,0,0,0,.329-.072.873.873,0,0,0,.467-.684,1.637,1.637,0,0,0-.155-.955A1.368,1.368,0,0,0,6.6,8.458Zm4.95-2.27a1.409,1.409,0,0,0-1.191,1.16A1.753,1.753,0,0,0,10.4,8.42a.929.929,0,0,0,.619.594.733.733,0,0,0,.2.027,1,1,0,0,0,.65-.266,1.871,1.871,0,0,0,.5-1.936.94.94,0,0,0-.628-.626A.777.777,0,0,0,11.553,6.188Zm-3.095,0a.786.786,0,0,0-.2.025,1.137,1.137,0,0,0-.719,1.18,1.935,1.935,0,0,0,.064.488A1.4,1.4,0,0,0,8.8,9.04a.706.706,0,0,0,.2-.025.867.867,0,0,0,.528-.422,1.676,1.676,0,0,0,.126-1.244A1.405,1.405,0,0,0,8.459,6.188Z"/></svg>