<svg xmlns="http://www.w3.org/2000/svg" width="13.553" height="13" viewBox="0 0 13.553 13"><defs><style>.a{fill:#a69ae2;}</style></defs><path class="a" d="M11.851,15a1.091,1.091,0,0,1-.511-.127L8.414,13.331a.156.156,0,0,0-.147,0L5.341,14.869a1.1,1.1,0,0,1-1.593-1.157l.559-3.257a.158.158,0,0,0-.047-.141L1.9,8.006a1.1,1.1,0,0,1,.61-1.872l3.268-.475a.158.158,0,0,0,.119-.087L7.354,2.608a1.1,1.1,0,0,1,1.968,0l1.462,2.963a.16.16,0,0,0,.119.087l3.271.475a1.1,1.1,0,0,1,.61,1.872l-2.367,2.307a.159.159,0,0,0-.047.141l.559,3.257a1.1,1.1,0,0,1-1.08,1.284ZM8.34,12.374a1.092,1.092,0,0,1,.511.127l2.925,1.537a.151.151,0,0,0,.167-.012.153.153,0,0,0,.063-.155l-.559-3.258a1.1,1.1,0,0,1,.315-.971L14.13,7.335a.159.159,0,0,0-.088-.27l-3.271-.476a1.1,1.1,0,0,1-.826-.6L8.481,3.025a.159.159,0,0,0-.284,0L6.735,5.988a1.1,1.1,0,0,1-.827.6l-3.27.476a.158.158,0,0,0-.088.27L4.917,9.642a1.1,1.1,0,0,1,.315.971l-.559,3.258a.159.159,0,0,0,.231.167L7.829,12.5a1.1,1.1,0,0,1,.511-.126Z" transform="translate(-1.563 -1.996)"/></svg>