<svg xmlns="http://www.w3.org/2000/svg" width="13.389" height="17.578" viewBox="0 0 13.389 17.578"><defs><style>.a{fill:#6699e4;}</style></defs><g transform="translate(-61)"><path class="a" d="M62.545,17.578h10.3a1.547,1.547,0,0,0,1.545-1.545V5.15h-3.6A1.547,1.547,0,0,1,69.24,3.6V0H62.545A1.547,1.547,0,0,0,61,1.545V16.033A1.547,1.547,0,0,0,62.545,17.578ZM64.6,7.244h6.18a.515.515,0,1,1,0,1.03H64.6a.515.515,0,1,1,0-1.03Zm0,2.06h6.18a.515.515,0,1,1,0,1.03H64.6a.515.515,0,1,1,0-1.03Zm0,2.06h6.18a.515.515,0,1,1,0,1.03H64.6a.515.515,0,1,1,0-1.03Zm0,2.06h4.12a.515.515,0,1,1,0,1.03H64.6a.515.515,0,1,1,0-1.03Z" transform="translate(0)"/><path class="a" d="M331.515,12.607h3.3L331,8.789v3.3A.515.515,0,0,0,331.515,12.607Z" transform="translate(-260.73 -8.487)"/></g></svg>