<svg xmlns="http://www.w3.org/2000/svg" width="21.849" height="25.003" viewBox="0 0 21.849 25.003"><defs><style>.a{fill:#e2c4ff;}.b{fill:#020288;}</style></defs><g transform="translate(-29.488 0.003)"><g transform="translate(41.589 16.57)"><path class="a" d="M288,342.18a5.292,5.292,0,0,0-.067-.833H278.8a5.3,5.3,0,0,0-.067.833V347.2H288Z" transform="translate(-278.735 -341.347)"/></g><g transform="translate(29.488 -0.003)"><path class="b" d="M.485,0h12.6a.486.486,0,0,1,.485.485V5.527a.486.486,0,0,1-.485.485H.485A.486.486,0,0,1,0,5.527V.485A.486.486,0,0,1,.485,0ZM12.6.971H.971v4.07H12.6Z" transform="matrix(0.37, -0.929, 0.929, 0.37, 1.677, 18.565)"/><path class="b" d="M.485,0H2.5a.486.486,0,0,1,.485.485V3.51A.486.486,0,0,1,2.5,4H.485A.486.486,0,0,1,0,3.51V.485A.486.486,0,0,1,.485,0ZM2.017.971H.971V3.025H2.017Z" transform="matrix(0.37, -0.929, 0.929, 0.37, 7.271, 7.226)"/><path class="b" d="M-9.517-3.878A.484.484,0,0,1-9.7-3.913a.486.486,0,0,1-.272-.631L-7.919-9.7a.485.485,0,0,1,.631-.272.486.486,0,0,1,.272.631L-9.066-4.184A.486.486,0,0,1-9.517-3.878Z" transform="translate(19.569 10.003)"/><path class="b" d="M.485,0H3.006a.485.485,0,0,1,.485.485V2.5a.485.485,0,0,1-.485.485H.485A.485.485,0,0,1,0,2.5V.485A.485.485,0,0,1,.485,0ZM2.521.971H.971V2.017h1.55Z" transform="matrix(0.37, -0.929, 0.929, 0.37, 2.151, 21.467)"/><path class="b" d="M.485,0H2.5a.485.485,0,0,1,.485.485V5.527a.485.485,0,0,1-.485.485H.485A.485.485,0,0,1,0,5.527V.485A.485.485,0,0,1,.485,0ZM2.017.971H.971v4.07H2.017Z" transform="matrix(0.37, -0.929, 0.929, 0.37, 0, 22.782)"/><path class="b" d="M88.092,320.049a.484.484,0,0,1-.183-.036c-.577-.235-1.223-.495-1.348-.54a.486.486,0,0,1-.066-.915c.2-.087.2-.087,1.78.555a.486.486,0,0,1-.183.935Z" transform="translate(-83.448 -303.054)"/><path class="b" d="M106.764,271.632a.484.484,0,0,1-.185-.037c-.36-.148-.771-.315-.872-.351a.486.486,0,0,1-.071-.916c.2-.088.2-.088,1.314.37a.486.486,0,0,1-.185.934Z" transform="translate(-101.659 -257.16)"/><path class="b" d="M145.132,175.139a.484.484,0,0,1-.185-.037c-.36-.148-.771-.315-.872-.351a.486.486,0,0,1-.071-.916c.2-.088.2-.088,1.314.37a.486.486,0,0,1-.185.934Z" transform="translate(-138.164 -165.352)"/><path class="b" d="M126.416,223.663a.484.484,0,0,1-.183-.036c-.577-.235-1.223-.495-1.348-.54a.486.486,0,0,1-.066-.915c.2-.087.2-.087,1.78.555a.486.486,0,0,1-.183.935Z" transform="translate(-119.911 -211.347)"/><path class="b" d="M-9.515-10h5.362a.485.485,0,0,1,.485.485v1.95a.485.485,0,0,1-.485.485H-9.515A.485.485,0,0,1-10-7.565v-1.95A.485.485,0,0,1-9.515-10Zm4.877.971H-9.029v.979h4.391Z" transform="translate(23.565 18.775)"/><path class="b" d="M-9.515-7.079A.485.485,0,0,1-10-7.565v-1.95A.485.485,0,0,1-9.515-10a.485.485,0,0,1,.485.485v1.95A.485.485,0,0,1-9.515-7.079Z" transform="translate(26.246 28.037)"/><path class="b" d="M-7.565-9.029h-1.95A.485.485,0,0,1-10-9.515.485.485,0,0,1-9.515-10h1.95a.485.485,0,0,1,.485.485A.485.485,0,0,1-7.565-9.029Z" transform="translate(25.272 29.012)"/><path class="b" d="M272.145,220.9h3.412a.486.486,0,0,1,.486.486v1.171a5.743,5.743,0,0,1,2.925,5.024v5.992a1.462,1.462,0,0,1-1.46,1.46H270.2a1.462,1.462,0,0,1-1.46-1.46v-5.992a5.743,5.743,0,0,1,2.925-5.024v-1.171A.486.486,0,0,1,272.145,220.9Zm2.927.971h-2.441v.977a.486.486,0,0,1-.268.434,4.779,4.779,0,0,0-2.657,4.3v5.992a.49.49,0,0,0,.489.489h7.312a.49.49,0,0,0,.489-.489v-5.992a4.78,4.78,0,0,0-2.657-4.3.486.486,0,0,1-.268-.434Z" transform="translate(-257.12 -210.173)"/></g></g></svg>