<svg xmlns="http://www.w3.org/2000/svg" width="25.531" height="25.003" viewBox="0 0 25.531 25.003"><defs><style>.a{fill:#020288;}.b{fill:#e2c4ff;}</style></defs><g transform="translate(0 -0.001)"><path class="a" d="M3.634,26.943a.489.489,0,0,1-.463-.334L2.45,24.446A3.316,3.316,0,0,1,5.6,20.082a.488.488,0,0,1,0,.977,2.339,2.339,0,0,0-2.219,3.079L4.1,26.3a.489.489,0,0,1-.463.643Z" transform="translate(-2.165 -19.1)"/><path class="a" d="M.488,140.572H2.45a.488.488,0,0,1,.488.488,5.4,5.4,0,0,0,10.792,0,.488.488,0,0,1,.488-.488h1.961a.488.488,0,0,1,.488.488,8.309,8.309,0,0,1-4.519,7.411A4.329,4.329,0,0,0,9.8,152.338a1.469,1.469,0,1,1-2.938,0,4.329,4.329,0,0,0-2.346-3.867A8.309,8.309,0,0,1,0,141.06.488.488,0,0,1,.488,140.572Zm1.492.977H.993A7.333,7.333,0,0,0,4.966,147.6a5.3,5.3,0,0,1,2.875,4.735.492.492,0,1,0,.985,0A5.3,5.3,0,0,1,11.7,147.6a7.333,7.333,0,0,0,3.974-6.055h-.987a6.373,6.373,0,0,1-12.708,0Z" transform="translate(0 -133.706)"/><path class="a" d="M163.592,301.968a2.943,2.943,0,0,1-2.94-2.94v-2.452a.488.488,0,1,1,.977,0v2.452a1.963,1.963,0,0,0,3.927,0,2.943,2.943,0,0,1,2.94-2.94h2.942a1.966,1.966,0,0,0,1.963-1.963v-2.452a.488.488,0,0,1,.977,0v2.452a2.943,2.943,0,0,1-2.94,2.94H168.5a1.966,1.966,0,0,0-1.963,1.963A2.943,2.943,0,0,1,163.592,301.968Z" transform="translate(-152.807 -276.963)"/><path class="a" d="M61.714,2.939h-.981a.488.488,0,0,1-.488-.488V.489A.488.488,0,0,1,60.733,0h.981a1.469,1.469,0,1,1,0,2.938Zm-.492-.977h.492a.492.492,0,1,0,0-.985h-.492Z" transform="translate(-57.303)"/><path class="a" d="M263.511,26.943a.489.489,0,0,1-.463-.643l.721-2.163a2.339,2.339,0,0,0-2.219-3.079.488.488,0,0,1,0-.977,3.316,3.316,0,0,1,3.146,4.364l-.721,2.163A.489.489,0,0,1,263.511,26.943Z" transform="translate(-248.312 -19.1)"/><path class="a" d="M223.349,2.939h-.981a1.469,1.469,0,0,1,0-2.938h.981a.488.488,0,0,1,.488.488V2.451A.488.488,0,0,1,223.349,2.939ZM222.368.978a.492.492,0,1,0,0,.985h.492V.978Z" transform="translate(-210.111)"/><ellipse class="b" cx="3.921" cy="3.921" rx="3.921" ry="3.921" transform="translate(16.634 14.587) rotate(-81.651)"/><path class="a" d="M393.551,190.775a1.959,1.959,0,1,1-1.959,1.959A1.962,1.962,0,0,1,393.551,190.775Zm0,2.942a.983.983,0,1,0-.695-.288A.984.984,0,0,0,393.551,193.717Z" transform="translate(-372.469 -181.458)"/></g></svg>