<svg xmlns="http://www.w3.org/2000/svg" width="21.029" height="25.003" viewBox="0 0 21.029 25.003"><defs><style>.a{fill:#e2c4ff;}.b{fill:#020288;}</style></defs><g transform="translate(-40.631)"><g transform="translate(41.12 7.88)"><path class="a" d="M345.974,165.983a3.423,3.423,0,0,0,0-4.841l-4.841,4.841A3.423,3.423,0,0,0,345.974,165.983Z" transform="translate(-326.926 -161.142)"/><path class="a" d="M291.634,355.983a3.423,3.423,0,0,0,4.841,0l-4.841-4.841A3.423,3.423,0,0,0,291.634,355.983Z" transform="translate(-278.894 -341.85)"/><path class="a" d="M50.631,255.64v7.12a4.892,4.892,0,0,0,9.785,0v-7.12Z" transform="translate(-50.631 -251.019)"/></g><g transform="translate(40.631 0)"><path class="b" d="M317.292,131.768a3.912,3.912,0,1,0,0,5.533A3.91,3.91,0,0,0,317.292,131.768Zm-.692,4.841a2.934,2.934,0,1,1,.859-2.075A2.933,2.933,0,0,1,316.6,136.609Z" transform="translate(-297.409 -124.233)"/><path class="b" d="M281.759,321.769a3.912,3.912,0,1,0,5.533,0A3.91,3.91,0,0,0,281.759,321.769Zm2.766,5.7a2.934,2.934,0,1,1,2.934-2.934A2.915,2.915,0,0,1,284.525,327.469Z" transform="translate(-268.876 -304.942)"/><path class="b" d="M46.012,0a5.387,5.387,0,0,0-5.381,5.381V19.622a5.381,5.381,0,0,0,10.763,0V5.381A5.387,5.387,0,0,0,46.012,0Zm4.4,19.622a4.4,4.4,0,0,1-8.806,0V5.381a4.4,4.4,0,0,1,8.806,0V19.622Z" transform="translate(-40.631 0)"/></g></g></svg>