<svg xmlns="http://www.w3.org/2000/svg" width="22.153" height="25.003" viewBox="0 0 22.153 25.003"><defs><style>.a{fill:#020288;}.b{fill:#e2c4ff;}</style></defs><g transform="translate(-30.121)"><path class="a" d="M46.278,43.363H32.02a1.9,1.9,0,0,1-1.9-1.9V21.979a1.9,1.9,0,0,1,1.9-1.9h3.326a.473.473,0,1,1,0,.947H32.02a.954.954,0,0,0-.953.952V41.464a.954.954,0,0,0,.953.952H46.278a.473.473,0,0,1,0,.947Z" transform="translate(0 -19.13)"/><path class="a" d="M306.452,34.256a.473.473,0,0,1-.473-.473v-11.8a.953.953,0,0,0-.952-.952H301.7a.473.473,0,0,1,0-.947h3.327a1.9,1.9,0,0,1,1.9,1.9v11.8A.473.473,0,0,1,306.452,34.256Z" transform="translate(-258.273 -19.131)"/><path class="a" d="M80.741,79.726h-9.98a.473.473,0,0,1-.473-.473V60.718a.473.473,0,0,1,.473-.473H84.543a.473.473,0,0,1,.473.473V71.649a.473.473,0,0,1-.947,0V61.192H71.235V78.78h9.507a.473.473,0,0,1,0,.947Z" transform="translate(-38.266 -57.394)"/><path class="a" d="M139.085,3.8a.473.473,0,0,1-.473-.473v-1.9a.478.478,0,0,0-.477-.477h-6.178a.478.478,0,0,0-.477.477v1.9a.473.473,0,1,1-.947,0v-1.9A1.425,1.425,0,0,1,131.957,0h6.178a1.425,1.425,0,0,1,1.424,1.424v1.9A.473.473,0,0,1,139.085,3.8Z" transform="translate(-95.659)"/><path class="a" d="M-9.527-7.152A.473.473,0,0,1-10-7.626v-1.9A.473.473,0,0,1-9.527-10a.473.473,0,0,1,.473.473v1.9A.473.473,0,0,1-9.527-7.152Z" transform="translate(44.874 15.228)"/><path class="a" d="M-7.626-9.053h-1.9A.473.473,0,0,1-10-9.527.473.473,0,0,1-9.527-10h1.9a.473.473,0,0,1,.473.473A.473.473,0,0,1-7.626-9.053Z" transform="translate(43.923 16.178)"/><path class="b" d="M192.2,113.3a1.424,1.424,0,1,1,0-2.848h4.277a1.424,1.424,0,1,1,0,2.848Z" transform="translate(-153.052 -105.221)"/><path class="a" d="M-1.448-9.053H-9.527A.473.473,0,0,1-10-9.527.473.473,0,0,1-9.527-10h8.079a.473.473,0,0,1,.473.473A.473.473,0,0,1-1.448-9.053Z" transform="translate(45.824 19.505)"/><path class="a" transform="translate(34.396 9.978)"/><path class="a" d="M-1.448-9.053H-9.527A.473.473,0,0,1-10-9.527.473.473,0,0,1-9.527-10h8.079a.473.473,0,0,1,.473.473A.473.473,0,0,1-1.448-9.053Z" transform="translate(45.824 21.881)"/><path class="a" transform="translate(34.396 12.354)"/><path class="a" d="M-1.62-9.053H-9.527A.473.473,0,0,1-10-9.527.473.473,0,0,1-9.527-10H-1.62a.473.473,0,0,1,.473.473A.473.473,0,0,1-1.62-9.053Z" transform="translate(45.824 24.257)"/><path class="a" transform="translate(34.396 14.731)"/><path class="a" d="M-3.9-9.053H-9.527A.473.473,0,0,1-10-9.527.473.473,0,0,1-9.527-10H-3.9a.473.473,0,0,1,.473.473A.473.473,0,0,1-3.9-9.053Z" transform="translate(45.824 26.634)"/><path class="a" transform="translate(34.396 17.107)"/><path class="a" d="M-4.275-9.053H-9.527A.473.473,0,0,1-10-9.527.473.473,0,0,1-9.527-10h5.251a.473.473,0,0,1,.473.473A.473.473,0,0,1-4.275-9.053Z" transform="translate(45.824 29.01)"/><path class="a" transform="translate(34.396 19.483)"/><circle class="b" cx="5.226" cy="5.226" r="5.226" transform="translate(40.283 23.329) rotate(-80.782)"/><path class="a" d="M-9.527-8.578A.473.473,0,0,1-10-9.051v-.475A.473.473,0,0,1-9.527-10a.473.473,0,0,1,.473.473v.475A.473.473,0,0,1-9.527-8.578Z" transform="translate(55.804 25.921)"/><path class="a" d="M323.682,386.571a1.958,1.958,0,1,1,.951,3.8h-1.9a2.22,2.22,0,0,1,.95-3.8Zm.951,2.851a.477.477,0,0,0,0-.954.473.473,0,0,1-.473-.473.477.477,0,1,0-.954,0,.473.473,0,0,1-.473.473.477.477,0,0,0,0,.954Z" transform="translate(-277.405 -368.274)"/><path class="a" d="M-9.527-8.578A.473.473,0,0,1-10-9.051v-.475A.473.473,0,0,1-9.527-10a.473.473,0,0,1,.473.473v.475A.473.473,0,0,1-9.527-8.578Z" transform="translate(55.804 25.921)"/><path class="a" d="M-9.527-8.554A.473.473,0,0,1-10-9.028v-.5A.473.473,0,0,1-9.527-10a.473.473,0,0,1,.473.473v.5A.473.473,0,0,1-9.527-8.554Z" transform="translate(58.156 26.871)"/><path class="a" d="M-9.527-8.554A.473.473,0,0,1-10-9.028v-.5A.473.473,0,0,1-9.527-10a.473.473,0,0,1,.473.473v.5A.473.473,0,0,1-9.527-8.554Z" transform="translate(53.452 26.871)"/></g></svg>