<svg xmlns="http://www.w3.org/2000/svg" width="29.085" height="29.085" viewBox="0 0 29.085 29.085"><defs><style>.a{fill:#559bea;}</style></defs><path class="a" d="M29.149,21.941c-.079-.063-5.851-4.223-7.435-3.924-.756.134-1.189.65-2.056,1.682-.14.167-.475.566-.736.85a12.135,12.135,0,0,1-1.6-.651,13.282,13.282,0,0,1-6.128-6.128,12.078,12.078,0,0,1-.651-1.6c.285-.262.684-.6.855-.741,1.028-.863,1.544-1.3,1.678-2.053C13.349,7.8,9.192,1.993,9.149,1.94A2.219,2.219,0,0,0,7.5,1C5.811,1,1,7.241,1,8.292c0,.061.088,6.27,7.744,14.058,7.78,7.647,13.988,7.736,14.049,7.736,1.052,0,7.292-4.811,7.292-6.5a2.213,2.213,0,0,0-.936-1.648Z" transform="translate(-1 -1)"/></svg>