<svg xmlns="http://www.w3.org/2000/svg" width="30.321" height="29.085" viewBox="0 0 30.321 29.085"><defs><style>.a{fill:#a69ae2;}</style></defs><path class="a" d="M24.578,31.08a2.442,2.442,0,0,1-1.144-.284l-6.546-3.44a.35.35,0,0,0-.33,0L10.015,30.8a2.455,2.455,0,0,1-3.563-2.589L7.7,20.921a.354.354,0,0,0-.105-.315L2.305,15.442a2.455,2.455,0,0,1,1.365-4.189l7.312-1.062A.354.354,0,0,0,11.25,10l3.269-6.632a2.454,2.454,0,0,1,4.4,0L22.193,10a.357.357,0,0,0,.267.194l7.319,1.063a2.456,2.456,0,0,1,1.365,4.189l-5.3,5.16a.356.356,0,0,0-.105.315l1.25,7.287a2.458,2.458,0,0,1-2.415,2.872Z" transform="translate(-1.563 -1.996)"/></svg>