<svg xmlns="http://www.w3.org/2000/svg" width="29" height="19" viewBox="0 0 29 19"><defs><style>.a{fill:#ffd250;}.b{fill:#963c3c;}.c{fill:#5aa587;}.d{fill:#ff7350;}.e{fill:#464655;}</style></defs><g transform="translate(0 -88.276)"><path class="a" d="M28.5,88.276H.5a.5.5,0,0,0-.5.5v18a.5.5,0,0,0,.5.5h28a.5.5,0,0,0,.5-.5v-18A.5.5,0,0,0,28.5,88.276Z" transform="translate(0 0)"/><path class="b" d="M185.379,115.258v15a.5.5,0,0,0,.5.5h16a.5.5,0,0,0,.5-.5v-15a.5.5,0,0,0-.5-.5h-16A.5.5,0,0,0,185.379,115.258Z" transform="translate(-174.879 -24.982)"/><path class="c" d="M30.232,114.759h-3.25a.5.5,0,0,0-.5.5v15a.5.5,0,0,0,.5.5h3.25Z" transform="translate(-24.982 -24.983)"/><path class="d" d="M95.94,114.759H92.69v16h3.25a.5.5,0,0,0,.5-.5v-15A.5.5,0,0,0,95.94,114.759Z" transform="translate(-87.44 -24.983)"/><g transform="translate(13.239 93.039)"><path class="a" d="M365.881,290.784c-.017-.112.082-.256.234-.463a1.724,1.724,0,0,0,.156-.236.431.431,0,0,0-.048,0,.364.364,0,0,1-.323-.114.234.234,0,0,1-.06-.175.6.6,0,0,1,.186-.336,3.67,3.67,0,0,1-.5-.406,1.344,1.344,0,0,0-1-.43,1.17,1.17,0,0,0,.36.869c.06.075.12.151.174.229a1.943,1.943,0,0,1,.178,1.215.551.551,0,0,1-.54.25.513.513,0,0,0-.384.112.242.242,0,0,0-.091.178s0,.025.007.028c.039.024.185-.022.289-.079a.077.077,0,0,1,.089.012.317.317,0,0,0,.434.007.077.077,0,0,1,.1,0,.348.348,0,0,0,.438-.024.077.077,0,0,1,.092-.006.281.281,0,0,0,.249.051.186.186,0,0,0,.1-.083,2.449,2.449,0,0,0-.067-.3C365.923,290.975,365.893,290.86,365.881,290.784Z" transform="translate(-356.83 -282.041)"/><path class="a" d="M284.457,183.191a.171.171,0,0,0-.14.04.237.237,0,0,0-.053.16.078.078,0,0,1-.024.06.076.076,0,0,1-.062.02,1.88,1.88,0,0,1-.594-.364,4.775,4.775,0,0,0-1.96-1c-.831-.106-1.571.16-1.759.629a1.041,1.041,0,0,0,.24,1,.077.077,0,0,1,.012.089.39.39,0,0,0,.052.473.272.272,0,0,1,.114-.155c.125-.075.288-.013.513.072a3.856,3.856,0,0,0,.46.151,3.812,3.812,0,0,0,1.487-.075c.172-.031.337-.06.491-.08a.836.836,0,0,1,.882.391c.052.13.079.392-.316.679-.711.517-3.954.279-4.145.264h-.017a.693.693,0,0,0,.19.167.077.077,0,0,1-.019.151l-.332.005.031.32a.076.076,0,0,1-.024.063.079.079,0,0,1-.064.02,1.776,1.776,0,0,1-.5-.158l-.375.237a.077.077,0,0,1-.041.012.074.074,0,0,1-.025,0,.077.077,0,0,1-.047-.046l-.143-.389-.17.34a.077.077,0,0,1-.065.042.074.074,0,0,1-.069-.036l-.146-.232a1.5,1.5,0,0,1-.282.28.077.077,0,0,1-.117-.04l-.076-.241a1.92,1.92,0,0,1-.268.283.077.077,0,0,1-.125-.054l-.025-.387a2.277,2.277,0,0,1-.272.123.077.077,0,0,1-.089-.111,1.811,1.811,0,0,0,.235-.589,2.311,2.311,0,0,1-.311.283,2.872,2.872,0,0,0-.824.939,1.775,1.775,0,0,0-.075,1.412,1.833,1.833,0,0,0,1.15,1,1.237,1.237,0,0,1-.036-.247,3.56,3.56,0,0,1,.079-.777.077.077,0,0,1,.149.034,3.484,3.484,0,0,0-.075.739,2.293,2.293,0,0,0,.16.635,1.834,1.834,0,0,1,.162.853c-.063.348-.5.436-.9.369a.336.336,0,0,0-.293.079.35.35,0,0,0-.1.29c.005.052.025.063.031.066a.323.323,0,0,0,.224-.042.077.077,0,0,1,.093.017c.161.18.378,0,.387-.007a.077.077,0,0,1,.106.006.273.273,0,0,0,.2.1.409.409,0,0,0,.256-.109.077.077,0,0,1,.085-.015.462.462,0,0,0,.391.045c.219-.187.093-.631.091-.635a.077.077,0,0,1,.056-.1.9.9,0,0,0,.562-.4.387.387,0,0,1-.344-.166.6.6,0,0,1,.14-.688,2.794,2.794,0,0,0,.519-1.57.077.077,0,1,1,.153-.014,3,3,0,0,1-.348,1.366,5.893,5.893,0,0,0,.88-.343,7.915,7.915,0,0,1,.953-.383,1.492,1.492,0,0,1,1.6.394,4.672,4.672,0,0,0,.735.565c.122.082.248.167.379.261a.685.685,0,0,1,.343.7,1.653,1.653,0,0,0,0,.218c.037.368-.256.426-.4.454l-.053.011-.07.015c-.143.029-.359.073-.412.256a.088.088,0,0,0-.006.044.538.538,0,0,0,.233-.059.077.077,0,0,1,.1.045c.027.08.069.093.083.1a.453.453,0,0,0,.3-.092.077.077,0,0,1,.1.006.282.282,0,0,0,.218.1.227.227,0,0,0,.142-.1.077.077,0,0,1,.058-.036.08.08,0,0,1,.064.025.505.505,0,0,0,.2.114c.09.028.113,0,.12-.015a.291.291,0,0,0-.05-.29.621.621,0,0,1-.115-.471.512.512,0,0,1,.236-.357c.237-.151.291-.313.276-.344a.4.4,0,0,0-.051-.008c-.106-.014-.282-.037-.464-.373-.16-.3-.005-.765.175-1.308a7.726,7.726,0,0,0,.243-.839,1.791,1.791,0,0,0-.35-1.391.077.077,0,0,1,.006-.105c.355-.333.507-.642.453-.917a.867.867,0,0,0-.556-.573,3.283,3.283,0,0,0-1.266.012,3.817,3.817,0,0,1-1.039.042.407.407,0,0,1-.278-.18.426.426,0,0,1-.058-.225.518.518,0,0,0-.207.162.077.077,0,0,1-.061.032.073.073,0,0,1-.062-.03.345.345,0,0,1-.075-.266.569.569,0,0,1,.162-.3.506.506,0,0,0-.514.15.078.078,0,0,1-.1.014.482.482,0,0,1-.218-.423.428.428,0,0,1,.23-.374.325.325,0,0,1,.275-.028.38.38,0,0,1,.175.149.609.609,0,0,0,.113-.327.077.077,0,0,1,.024-.054.073.073,0,0,1,.056-.021.535.535,0,0,1,.419.195.822.822,0,0,1,.136.541.514.514,0,0,0,.251-.506.077.077,0,0,1,.028-.069.076.076,0,0,1,.073-.012.691.691,0,0,1,.446.587.29.29,0,0,0,.088-.191.077.077,0,0,1,.144-.037,1.125,1.125,0,0,0,.432.428l-.091-.221a.077.077,0,0,1,.107-.1,2.852,2.852,0,0,1,.4.272,2.768,2.768,0,0,0,.536.345.554.554,0,0,0,.45.049.274.274,0,0,0,.154-.141.327.327,0,0,0-.01-.274A.192.192,0,0,0,284.457,183.191Z" transform="translate(-273.131 -181.532)"/><path class="a" d="M271.606,217.467h0a5.316,5.316,0,0,0,1.1.214.077.077,0,0,1,.055.125l-.018.023a2.57,2.57,0,0,1,.36-.03c-.052-.062-.117-.141-.184-.224a2.786,2.786,0,0,1-1.063-.224c-.1-.049-.275-.133-.357-.09a.094.094,0,0,0-.034.084C271.471,217.4,271.521,217.442,271.606,217.467Z" transform="translate(-269.329 -214.706)"/><path class="a" d="M303.138,201.564a.074.074,0,0,0-.022,0,.092.092,0,0,0-.055.077.119.119,0,0,0,.048.118.121.121,0,0,0,.153-.022.1.1,0,0,0,.025-.128h0A.414.414,0,0,0,303.138,201.564Z" transform="translate(-299.134 -199.911)"/><path class="a" d="M272.842,188.142a.622.622,0,0,0,.142.2.279.279,0,0,1,.087-.11.264.264,0,0,1,.216-.037h.013l.007,0,.011,0,.007.006a.16.16,0,0,1,.089.084c.058.135-.044.4-.134.586.064-.032.125-.063.158-.081a.077.077,0,0,1,.113.063l.022.342a2.451,2.451,0,0,0,.215-.265.077.077,0,0,1,.136.02l.087.276a1.911,1.911,0,0,0,.23-.265.08.08,0,0,1,.065-.033.077.077,0,0,1,.063.036l.132.21.188-.376a.073.073,0,0,1,.073-.042.077.077,0,0,1,.068.05l.172.467.335-.211a.076.076,0,0,1,.083,0,1.279,1.279,0,0,0,.383.141l-.029-.3a.077.077,0,0,1,.075-.084l.192,0c-.046-.047-.084-.092-.1-.115a.076.076,0,0,1-.017-.052,1.526,1.526,0,0,1-.535-.116l-.117.181a.076.076,0,0,1-.049.033l-.015,0a.076.076,0,0,1-.043-.013l-.443-.3-.081.221a.077.077,0,0,1-.13.024c-.076-.087-.2-.221-.267-.294a1.533,1.533,0,0,1-.3.228.077.077,0,0,1-.109-.04l-.121-.326a.077.077,0,1,1,.144-.053l.089.238a1.672,1.672,0,0,0,.237-.205.077.077,0,0,1,.1-.008c.045.036.166.169.25.264l.071-.192a.076.076,0,0,1,.048-.046.075.075,0,0,1,.066.009l.459.308.111-.171a.076.076,0,0,1,.1-.027,1.372,1.372,0,0,0,.564.13.978.978,0,0,1-.094-.411,1.716,1.716,0,0,1-.4-.244l-.055.136a.077.077,0,0,1-.116.033l-.221-.161-.022.166a.077.077,0,0,1-.116.056,1.532,1.532,0,0,1-.3-.238.077.077,0,0,1,.115-.1,1.065,1.065,0,0,0,.164.142l.022-.171a.077.077,0,0,1,.121-.052l.246.179.059-.146a.077.077,0,0,1,.124-.027,1.58,1.58,0,0,0,.526.325,3.8,3.8,0,0,1-.062-.475s0,0,0-.005a1.5,1.5,0,0,1-.434-.358.8.8,0,0,1-.032.251.077.077,0,0,1-.046.045.078.078,0,0,1-.064-.005,1.333,1.333,0,0,1-.3-.241,1,1,0,0,1-.069.195.077.077,0,0,1-.1.029,1.224,1.224,0,0,1-.229-.154,1.271,1.271,0,0,1-.048.274.076.076,0,0,1-.045.044.079.079,0,0,1-.063,0,2.508,2.508,0,0,1-.264-.169l-.034.128a.077.077,0,0,1-.106.05,1.123,1.123,0,0,1-.353-.258.077.077,0,0,1,.118-.1.83.83,0,0,0,.217.172l.039-.149a.077.077,0,0,1,.126-.037,1.738,1.738,0,0,0,.243.175c.015-.095.027-.231.032-.32a.077.077,0,0,1,.144-.032.665.665,0,0,0,.22.2c.021-.066.047-.162.066-.246a.077.077,0,0,1,.067-.059.075.075,0,0,1,.077.045.763.763,0,0,0,.247.262,2.338,2.338,0,0,0-.01-.37.077.077,0,0,1,.145-.042,1.3,1.3,0,0,0,.569.559,1.755,1.755,0,0,0-.173-1.173.077.077,0,0,1,.021-.115.675.675,0,0,0,.273-.367,2.071,2.071,0,0,1-1.046.458l.117.143a.077.077,0,0,1-.052.125,1.553,1.553,0,0,1-.655-.058l.05.093a.077.077,0,0,1,0,.077.073.073,0,0,1-.068.036,1.529,1.529,0,0,1-.623-.2.275.275,0,0,1-.082.156.287.287,0,0,1-.2.084.26.26,0,0,1-.145-.044.27.27,0,0,1-.114-.268.24.24,0,0,1,.163-.2c.114-.034.245.032.41.116a1.865,1.865,0,0,0,.457.182l-.095-.175a.077.077,0,0,1,.118-.094.991.991,0,0,0,.625.15l-.109-.133a.077.077,0,0,1,.052-.125,2.248,2.248,0,0,0,1.024-.376.736.736,0,0,1-.231.031.076.076,0,0,1-.054-.029.83.83,0,0,0-.45-.313.871.871,0,0,1-.182.3.077.077,0,0,1-.12-.013.608.608,0,0,0-.448-.293.423.423,0,0,1-.176.352.077.077,0,0,1-.1,0,.564.564,0,0,0-.686-.148.226.226,0,0,1,0,.191c-.157.318-1.129.382-1.322.392a.076.076,0,0,1-.063-.028.077.077,0,0,1-.014-.068.205.205,0,0,0-.027-.161.221.221,0,0,0-.137-.1.23.23,0,0,0-.2.059c-.066.072-.07.206-.013.387a2.153,2.153,0,0,0,.617.821c0-.04,0-.07,0-.078a.077.077,0,0,1,.139-.04.758.758,0,0,0,.2.2l.038-.245a.077.077,0,0,1,.067-.064.078.078,0,0,1,.08.047,6.6,6.6,0,0,0,.673.886.076.076,0,0,1,.009.087.078.078,0,0,1-.078.039,2.4,2.4,0,0,0-.7.054.077.077,0,0,1-.077-.123l.057-.071a5.557,5.557,0,0,1-.921-.187l-.129.349.347-.035a.077.077,0,0,1,.078.105l-.065.16.286-.076a.076.076,0,0,1,.091.046.608.608,0,0,0,.121.2l.08-.178a.074.074,0,0,1,.071-.045A.076.076,0,0,1,272.842,188.142Z" transform="translate(-269.59 -184.641)"/><path class="a" d="M258.281,270.154c.3.2.547-.028.677-.206a1.717,1.717,0,0,1-.6-.751,1.66,1.66,0,0,1-.084-.294,7.327,7.327,0,0,1-.8-.745.449.449,0,0,1-.061.109.313.313,0,0,1-.03.236.275.275,0,0,1-.021.195.232.232,0,0,1,.029.235.311.311,0,0,1-.029.049.637.637,0,0,1,.113.418.454.454,0,0,0,.106.313.156.156,0,0,1,.087-.039c.1-.011.176.072.285.186A1.94,1.94,0,0,0,258.281,270.154Z" transform="translate(-256.021 -262.734)"/><path class="a" d="M241.371,265.025h-.017a1.68,1.68,0,0,1-.3-.03.161.161,0,0,0,.03.115.081.081,0,0,1,.032.064.077.077,0,0,1-.032.063c-.013.009-.052.044-.052.078s.039.067.062.085a.077.077,0,0,1,.012.112.141.141,0,0,0-.033.09c0,.008,0,.031.044.058a.076.076,0,0,1,.018.109.088.088,0,0,0-.013.063c.009.035.052.061.087.077a.691.691,0,0,0,.254.054h.009a.644.644,0,0,0,.237-.032.228.228,0,0,0,.138-.112c.007-.015.021-.046-.039-.117a.077.077,0,0,1,0-.1s.051-.07.02-.127a.077.077,0,0,1,.013-.092.156.156,0,0,0,.014-.162.077.077,0,0,1,.019-.083.276.276,0,0,0,.071-.185l-.028-.034A1.38,1.38,0,0,1,241.371,265.025Z" transform="translate(-240.615 -259.683)"/><path class="a" d="M242.974,172.375a2.223,2.223,0,0,0-.99,2.12l.017,2.411.007.01a.322.322,0,0,1,0,.241,1.038,1.038,0,0,0,.533.015.3.3,0,0,1,.033-.266A15.988,15.988,0,0,1,242.974,172.375Z" transform="translate(-241.517 -172.375)"/><path class="a" d="M235.231,253.366a.273.273,0,0,0-.184-.249c-.019-.007-.083-.024-.113.014a.152.152,0,0,0-.017.173.143.143,0,0,1,.013.089.1.1,0,0,1-.061.064,1.1,1.1,0,0,1-.773-.032.077.077,0,0,1-.034-.1.278.278,0,0,0,.034-.176s0-.009-.026-.012a.443.443,0,0,0-.061,0,.317.317,0,0,0-.227.079.166.166,0,0,0-.036.157c.045.219.32.352.735.356a1,1,0,0,0,.671-.2A.228.228,0,0,0,235.231,253.366Z" transform="translate(-233.742 -248.535)"/><path class="a" d="M238.117,285.986a.076.076,0,0,1,.076-.029.348.348,0,0,0,.262-.02.1.1,0,0,0,.012-.112c-.007-.012-.028-.05-.108-.02s-.184.061-.252,0a.118.118,0,0,1-.029-.041c-.021,0-.041,0-.061-.006a.119.119,0,0,1-.031.047c-.068.061-.176.03-.252,0s-.1.007-.108.02a.1.1,0,0,0,.012.112.338.338,0,0,0,.252.022.085.085,0,0,1,.081.027.076.076,0,0,1,.012.08,1.8,1.8,0,0,1-.166.273.484.484,0,0,1-.016.612.081.081,0,0,1-.063.026.077.077,0,0,1-.059-.035.178.178,0,0,0-.093-.072.079.079,0,0,0-.063.017.1.1,0,0,0-.014.11.233.233,0,0,0,.257.133.077.077,0,0,1,.054.135l-.125.107.2.05a.077.077,0,0,1,.056.054.122.122,0,1,0,.184,0,.077.077,0,0,1,.056-.054l.2-.05-.125-.107a.077.077,0,0,1-.021-.086.075.075,0,0,1,.075-.048.235.235,0,0,0,.257-.134.1.1,0,0,0-.014-.11.079.079,0,0,0-.064-.017.181.181,0,0,0-.093.072.077.077,0,0,1-.122.009.484.484,0,0,1-.015-.612,1.793,1.793,0,0,1-.166-.273A.076.076,0,0,1,238.117,285.986Z" transform="translate(-237.288 -279.336)"/></g><path class="e" d="M242.8,170.389a.339.339,0,0,0-.279-.152.318.318,0,0,0-.259.085.334.334,0,0,0-.087.167,4.626,4.626,0,0,1-.447-.306,4.89,4.89,0,0,0-2.032-1.032,2.206,2.206,0,0,0-1.691.4c.006-.047.007-.078.008-.084s0,0,0,0a.074.074,0,0,0-.011-.04l-.005-.007a.075.075,0,0,0-.033-.026h0a.075.075,0,0,0-.043,0l-.008,0a.075.075,0,0,0-.034.024l0,0a.6.6,0,0,1-.458.244.883.883,0,0,0-.6-.352.076.076,0,0,0-.078.065.534.534,0,0,1-.1.217.751.751,0,0,0-.625-.282.077.077,0,0,0-.062.108.215.215,0,0,1-.054.236.68.68,0,0,0-.885-.07.077.077,0,0,0-.013.1c.037.054.031.083.021.1-.081.163-.665.27-1.1.3a.381.381,0,0,0-.291-.351.378.378,0,0,0-.35.106.531.531,0,0,0-.046.537,2.32,2.32,0,0,0,.682.907c-.051-.019-.1-.039-.149-.062-.122-.059-.327-.159-.478-.08a.244.244,0,0,0-.116.235.282.282,0,0,0,.173.226l-.17.462a.077.077,0,0,0,.011.073.076.076,0,0,0,.068.029l.342-.034-.075.184a.077.077,0,0,0,.013.08.075.075,0,0,0,.077.023l.371-.1a.6.6,0,0,0,.23.269.075.075,0,0,0,.06,0,.077.077,0,0,0,.045-.041l.059-.131a.824.824,0,0,0,.168.174l-.077.063a3.041,3.041,0,0,0-.864.987,1.993,1.993,0,0,0-.2,1.022,6.372,6.372,0,0,1-.789-.778.639.639,0,0,0,.088-.065.38.38,0,0,0,.122-.271.425.425,0,0,0-.288-.394.3.3,0,0,0-.146-.012c0-3.341.376-4.363.453-4.536a.077.077,0,0,0-.091-.1c-.05.015-1.23.383-1.256,2.335l.016,2.329a.482.482,0,0,0-.4.123.315.315,0,0,0-.074.293.579.579,0,0,0,.431.411.244.244,0,0,0-.006.085.342.342,0,0,0,.037.124.236.236,0,0,0-.059.145.228.228,0,0,0,.069.164.257.257,0,0,0-.028.146.265.265,0,0,1,.052.247.239.239,0,0,0,.089.129.215.215,0,0,0-.238.1.247.247,0,0,0,.052.309.346.346,0,0,0,.231.068.661.661,0,0,1-.106.147.077.077,0,0,0-.01.112.375.375,0,0,1,.076.393.274.274,0,0,0-.118-.059.232.232,0,0,0-.181.041.247.247,0,0,0-.073.285.345.345,0,0,0,.225.215l-.108.092a.077.077,0,0,0,.032.133l.308.075a.8.8,0,0,0,.167.288.1.1,0,0,0,.062.022.076.076,0,0,0,.054-.022.8.8,0,0,0,.167-.288l.308-.075a.077.077,0,0,0,.032-.133l-.108-.092a.346.346,0,0,0,.225-.215.247.247,0,0,0-.073-.285.233.233,0,0,0-.181-.041.274.274,0,0,0-.118.058.379.379,0,0,1,.076-.393.077.077,0,0,0-.01-.112.659.659,0,0,1-.106-.147.363.363,0,0,0,.231-.068.2.2,0,0,0,.038-.044.558.558,0,0,0,.228.475.076.076,0,0,0,.1-.026.119.119,0,0,1,.029-.035c.027,0,.1.081.158.139a2.064,2.064,0,0,0,.357.316.568.568,0,0,0,.319.105.778.778,0,0,0,.571-.352,2.813,2.813,0,0,0,.589.277.075.075,0,0,0,.023,0c.027.086.055.173.085.259a1.743,1.743,0,0,1,.156.776c-.05.28-.493.283-.721.245a.489.489,0,0,0-.423.118.5.5,0,0,0-.152.417.22.22,0,0,0,.111.186.4.4,0,0,0,.316-.017.411.411,0,0,0,.5.008.405.405,0,0,0,.255.1H235a.544.544,0,0,0,.317-.119.553.553,0,0,0,.5.012.77.77,0,0,0,.17-.728,1.044,1.044,0,0,0,.662-.6.077.077,0,0,0-.092-.1.282.282,0,0,1-.331-.077c-.078-.122-.027-.321.128-.507a1.512,1.512,0,0,0,.094-.127,5.27,5.27,0,0,0,1.056-.392,7.817,7.817,0,0,1,.935-.376,1.676,1.676,0,0,1,.289-.061,1.324,1.324,0,0,0,.394.952c.058.073.116.145.168.221a1.9,1.9,0,0,1,.163,1.067.412.412,0,0,1-.379.159.664.664,0,0,0-.505.149.392.392,0,0,0-.144.294.173.173,0,0,0,.082.16c.111.066.295,0,.393-.052a.44.44,0,0,0,.274.1.512.512,0,0,0,.275-.085.489.489,0,0,0,.541-.028.4.4,0,0,0,.349.035.356.356,0,0,0,.069-.037l.009.01c.082.07.232.033.329,0a.265.265,0,0,0,.148.12.518.518,0,0,0,.387-.081.391.391,0,0,0,.3.1.353.353,0,0,0,.2-.1.73.73,0,0,0,.206.1.356.356,0,0,0,.108.018.216.216,0,0,0,.184-.093.438.438,0,0,0-.057-.472.467.467,0,0,1-.083-.35.363.363,0,0,1,.167-.253.663.663,0,0,0,.348-.457.158.158,0,0,0-.064-.139.258.258,0,0,0-.121-.037c-.091-.012-.2-.027-.349-.294-.129-.238.024-.7.185-1.187a7.871,7.871,0,0,0,.248-.856,1.907,1.907,0,0,0-.339-1.464,1.15,1.15,0,0,0,.449-1.011,1.022,1.022,0,0,0-.652-.687,3.323,3.323,0,0,0-1.339,0,3.722,3.722,0,0,1-.99.044.261.261,0,0,1-.179-.109.322.322,0,0,1-.027-.222.077.077,0,0,0-.014-.068.075.075,0,0,0-.063-.029.537.537,0,0,0-.336.155.188.188,0,0,1,0-.064.525.525,0,0,1,.191-.277.077.077,0,0,0-.006-.127.622.622,0,0,0-.753.083.343.343,0,0,1-.1-.251.276.276,0,0,1,.149-.244.178.178,0,0,1,.149-.02.284.284,0,0,1,.135.151.077.077,0,0,0,.046.045.075.075,0,0,0,.064-.006.587.587,0,0,0,.243-.425.356.356,0,0,1,.233.129.792.792,0,0,1,.092.547.077.077,0,0,0,.1.089.629.629,0,0,0,.475-.583.6.6,0,0,1,.246.523.077.077,0,0,0,.105.076.441.441,0,0,0,.236-.213,1.326,1.326,0,0,0,.593.432.077.077,0,0,0,.094-.1l-.075-.182c.061.043.12.088.18.135a2.894,2.894,0,0,0,.564.363.7.7,0,0,0,.573.052.424.424,0,0,0,.24-.229A.473.473,0,0,0,242.8,170.389Zm-.119.357a.274.274,0,0,1-.154.141.554.554,0,0,1-.45-.049,2.762,2.762,0,0,1-.536-.345,2.865,2.865,0,0,0-.4-.272.077.077,0,0,0-.107.1l.091.221a1.125,1.125,0,0,1-.432-.428.077.077,0,0,0-.144.037.29.29,0,0,1-.088.191.691.691,0,0,0-.446-.587.076.076,0,0,0-.073.012.077.077,0,0,0-.028.069.514.514,0,0,1-.251.506.821.821,0,0,0-.136-.541.534.534,0,0,0-.419-.195.072.072,0,0,0-.056.021.077.077,0,0,0-.024.054.609.609,0,0,1-.113.327.38.38,0,0,0-.175-.148.326.326,0,0,0-.275.028.428.428,0,0,0-.23.374.482.482,0,0,0,.218.423.077.077,0,0,0,.1-.015.506.506,0,0,1,.514-.15.569.569,0,0,0-.162.3.345.345,0,0,0,.075.266.073.073,0,0,0,.062.03.077.077,0,0,0,.061-.032.518.518,0,0,1,.207-.162.424.424,0,0,0,.058.225.407.407,0,0,0,.278.18,3.818,3.818,0,0,0,1.039-.042,3.284,3.284,0,0,1,1.266-.012.867.867,0,0,1,.556.573c.054.276-.1.584-.453.917a.077.077,0,0,0-.006.105,1.791,1.791,0,0,1,.35,1.391,7.722,7.722,0,0,1-.243.839c-.18.543-.335,1.012-.175,1.308.182.336.358.359.464.373a.4.4,0,0,1,.051.008c.015.031-.039.193-.276.344a.512.512,0,0,0-.236.357.621.621,0,0,0,.115.471.291.291,0,0,1,.05.29c-.007.011-.03.043-.12.015a.507.507,0,0,1-.2-.114.08.08,0,0,0-.064-.025.076.076,0,0,0-.058.036.228.228,0,0,1-.142.1.281.281,0,0,1-.218-.1.077.077,0,0,0-.1-.006.453.453,0,0,1-.3.092c-.014,0-.056-.018-.083-.1a.077.077,0,0,0-.1-.045.54.54,0,0,1-.233.059.09.09,0,0,1,.006-.044c.053-.183.269-.227.412-.256l.07-.015.053-.011c.141-.028.433-.086.4-.454a1.64,1.64,0,0,1,0-.218.685.685,0,0,0-.343-.7c-.131-.095-.258-.18-.38-.261a4.672,4.672,0,0,1-.735-.565,1.492,1.492,0,0,0-1.6-.394,7.914,7.914,0,0,0-.953.383,5.893,5.893,0,0,1-.88.343,3.006,3.006,0,0,0,.348-1.366.077.077,0,1,0-.153.014,2.794,2.794,0,0,1-.519,1.57.6.6,0,0,0-.14.688.387.387,0,0,0,.344.166.9.9,0,0,1-.562.4.077.077,0,0,0-.049.036.076.076,0,0,0-.007.06s.128.448-.091.635a.462.462,0,0,1-.391-.045.077.077,0,0,0-.085.015.409.409,0,0,1-.256.109.273.273,0,0,1-.2-.1.077.077,0,0,0-.106-.006c-.009.008-.226.188-.387.007a.077.077,0,0,0-.093-.017.322.322,0,0,1-.223.042c-.006,0-.026-.014-.031-.066a.35.35,0,0,1,.1-.29.336.336,0,0,1,.293-.079c.4.067.834-.021.9-.369a1.836,1.836,0,0,0-.162-.853,2.291,2.291,0,0,1-.16-.635,3.48,3.48,0,0,1,.075-.739.077.077,0,0,0-.149-.034,3.554,3.554,0,0,0-.079.777,1.234,1.234,0,0,0,.036.247,1.833,1.833,0,0,1-1.15-1,1.775,1.775,0,0,1,.075-1.412,2.872,2.872,0,0,1,.824-.939,2.308,2.308,0,0,0,.311-.283,1.81,1.81,0,0,1-.235.589.077.077,0,0,0,.089.111,2.27,2.27,0,0,0,.272-.123l.025.387a.077.077,0,0,0,.125.054,1.921,1.921,0,0,0,.268-.283l.076.241a.077.077,0,0,0,.117.04,1.494,1.494,0,0,0,.282-.28l.146.232a.073.073,0,0,0,.069.036.076.076,0,0,0,.065-.042l.17-.34.143.389a.077.077,0,0,0,.047.046.074.074,0,0,0,.025,0,.078.078,0,0,0,.041-.012l.375-.237a1.779,1.779,0,0,0,.5.158.079.079,0,0,0,.064-.02.077.077,0,0,0,.024-.063l-.031-.32.332-.005a.077.077,0,0,0,.019-.151.7.7,0,0,1-.19-.167h.017c.191.015,3.434.253,4.145-.264.4-.288.368-.549.316-.679a.837.837,0,0,0-.882-.391c-.154.02-.319.049-.491.08a3.812,3.812,0,0,1-1.487.075,3.856,3.856,0,0,1-.46-.15c-.225-.085-.388-.147-.513-.072a.271.271,0,0,0-.114.155.39.39,0,0,1-.052-.473.077.077,0,0,0-.012-.089,1.041,1.041,0,0,1-.24-1c.188-.47.928-.735,1.759-.629a4.777,4.777,0,0,1,1.96,1,1.883,1.883,0,0,0,.594.364.076.076,0,0,0,.062-.02.077.077,0,0,0,.024-.061.237.237,0,0,1,.053-.16.171.171,0,0,1,.14-.04.193.193,0,0,1,.16.082A.329.329,0,0,1,242.682,170.746Zm-2.41,7.411a.281.281,0,0,1-.249-.051.077.077,0,0,0-.092.006.348.348,0,0,1-.438.024.077.077,0,0,0-.1,0,.317.317,0,0,1-.434-.007.077.077,0,0,0-.089-.012c-.1.056-.25.1-.289.079-.006,0-.007-.024-.007-.028a.242.242,0,0,1,.091-.178.513.513,0,0,1,.384-.112.551.551,0,0,0,.54-.25,1.942,1.942,0,0,0-.178-1.215c-.054-.079-.114-.154-.174-.229a1.169,1.169,0,0,1-.36-.869,1.344,1.344,0,0,1,1,.43,3.663,3.663,0,0,0,.5.406.6.6,0,0,0-.186.336.235.235,0,0,0,.06.175.364.364,0,0,0,.323.114.427.427,0,0,1,.048,0,1.717,1.717,0,0,1-.156.236c-.152.207-.25.352-.234.463.011.076.041.191.07.3a2.442,2.442,0,0,1,.067.3A.185.185,0,0,1,240.273,178.157Zm.323-1.056c.147-.2.222-.31.179-.4s-.135-.085-.2-.082a.219.219,0,0,1-.2-.063.08.08,0,0,1-.021-.063.517.517,0,0,1,.161-.257l.133.09c.12.081.245.165.375.258a.538.538,0,0,1,.279.568,1.768,1.768,0,0,0,0,.237c.021.213-.1.254-.274.288l-.061.013-.063.014a.84.84,0,0,0-.411.175c-.01-.042-.022-.09-.037-.146-.028-.107-.057-.218-.067-.286S240.52,177.2,240.6,177.1Zm-7.765-1.43a.156.156,0,0,0-.087.039.454.454,0,0,1-.106-.313.638.638,0,0,0-.113-.418.306.306,0,0,0,.029-.049.232.232,0,0,0-.029-.235.275.275,0,0,0,.021-.195.313.313,0,0,0,.03-.236.444.444,0,0,0,.061-.109,7.351,7.351,0,0,0,.8.745,1.665,1.665,0,0,0,.084.294,1.718,1.718,0,0,0,.6.751c-.131.177-.375.408-.677.206a1.935,1.935,0,0,1-.331-.294C233.006,175.743,232.927,175.66,232.83,175.671Zm-.641.675a.077.077,0,0,0,.122-.009.182.182,0,0,1,.093-.072.078.078,0,0,1,.064.017.1.1,0,0,1,.014.11.235.235,0,0,1-.257.134.075.075,0,0,0-.075.048.077.077,0,0,0,.021.087l.125.107-.2.05a.077.077,0,0,0-.056.054.122.122,0,1,1-.184,0,.077.077,0,0,0-.056-.054l-.2-.05.125-.107a.077.077,0,0,0-.054-.135.233.233,0,0,1-.257-.134.1.1,0,0,1,.014-.11.079.079,0,0,1,.063-.017.178.178,0,0,1,.093.072.077.077,0,0,0,.059.035.081.081,0,0,0,.063-.026.484.484,0,0,0,.016-.612,1.792,1.792,0,0,0,.166-.273.076.076,0,0,0-.012-.08.085.085,0,0,0-.081-.027.338.338,0,0,1-.252-.022.1.1,0,0,1-.012-.112c.007-.013.029-.05.108-.02s.184.061.252,0a.117.117,0,0,0,.031-.047c.02,0,.041,0,.061.006a.117.117,0,0,0,.029.041c.068.061.177.03.252,0s.1.007.108.02a.1.1,0,0,1-.012.112.348.348,0,0,1-.262.02.077.077,0,0,0-.084.109,1.8,1.8,0,0,0,.166.273A.484.484,0,0,0,232.189,176.347Zm.249-2.154a.076.076,0,0,0-.019.083.156.156,0,0,1-.014.162.077.077,0,0,0-.013.092c.032.056-.02.126-.02.127a.077.077,0,0,0,0,.1c.06.07.046.1.039.117a.227.227,0,0,1-.138.112.643.643,0,0,1-.237.032h-.009a.691.691,0,0,1-.254-.054c-.034-.016-.078-.043-.087-.077a.087.087,0,0,1,.013-.063.076.076,0,0,0-.018-.109c-.04-.027-.043-.05-.044-.058a.14.14,0,0,1,.033-.09.077.077,0,0,0-.012-.112c-.023-.018-.062-.052-.062-.085a.124.124,0,0,1,.053-.078.077.077,0,0,0,.032-.063.081.081,0,0,0-.032-.064.161.161,0,0,1-.03-.115,1.674,1.674,0,0,0,.3.03h.017a1.379,1.379,0,0,0,.538-.1l.028.034A.275.275,0,0,1,232.437,174.192Zm-.511-.272c-.415,0-.689-.137-.735-.356a.166.166,0,0,1,.036-.157.316.316,0,0,1,.227-.079.44.44,0,0,1,.061,0c.022,0,.025.01.026.012a.277.277,0,0,1-.034.176.077.077,0,0,0,.034.1,1.1,1.1,0,0,0,.773.032.1.1,0,0,0,.061-.064.142.142,0,0,0-.013-.088.152.152,0,0,1,.017-.173c.03-.039.094-.021.113-.014a.273.273,0,0,1,.184.249.229.229,0,0,1-.077.163A1,1,0,0,1,231.926,173.92Zm.282-.392a1.036,1.036,0,0,1-.533-.015.321.321,0,0,0,0-.241l-.007-.01-.017-2.411a2.223,2.223,0,0,1,.99-2.12,15.987,15.987,0,0,0-.4,4.532A.3.3,0,0,0,232.208,173.528Zm2.09-1.3-.08.178a.61.61,0,0,1-.121-.2.076.076,0,0,0-.091-.046l-.286.076.065-.16a.077.077,0,0,0-.01-.075.075.075,0,0,0-.069-.03l-.347.035.129-.349a5.562,5.562,0,0,0,.921.187l-.057.071a.077.077,0,0,0,.077.123,2.406,2.406,0,0,1,.7-.054.078.078,0,0,0,.078-.039.076.076,0,0,0-.009-.087,6.589,6.589,0,0,1-.673-.886.078.078,0,0,0-.08-.047.077.077,0,0,0-.067.064l-.038.245a.756.756,0,0,1-.2-.2.077.077,0,0,0-.139.04c0,.007,0,.037,0,.078a2.153,2.153,0,0,1-.617-.821c-.057-.181-.053-.315.013-.387a.23.23,0,0,1,.2-.059.221.221,0,0,1,.137.1.206.206,0,0,1,.027.161.076.076,0,0,0,.014.068.075.075,0,0,0,.063.028c.193-.01,1.165-.074,1.322-.392a.227.227,0,0,0,0-.191.564.564,0,0,1,.686.148.077.077,0,0,0,.1,0,.423.423,0,0,0,.176-.352.608.608,0,0,1,.448.293.077.077,0,0,0,.12.013.872.872,0,0,0,.182-.3.83.83,0,0,1,.45.313.077.077,0,0,0,.054.029.736.736,0,0,0,.231-.031,2.249,2.249,0,0,1-1.024.376.077.077,0,0,0-.052.125l.109.133a.991.991,0,0,1-.625-.15.077.077,0,0,0-.118.094l.095.175a1.863,1.863,0,0,1-.457-.182c-.165-.084-.3-.15-.41-.116a.24.24,0,0,0-.163.2.27.27,0,0,0,.114.268.26.26,0,0,0,.145.044.288.288,0,0,0,.2-.084.274.274,0,0,0,.082-.156,1.53,1.53,0,0,0,.623.2.073.073,0,0,0,.068-.036.076.076,0,0,0,0-.077l-.05-.092a1.555,1.555,0,0,0,.655.058.077.077,0,0,0,.052-.125l-.117-.143a2.07,2.07,0,0,0,1.046-.458.675.675,0,0,1-.272.367.077.077,0,0,0-.021.115,1.756,1.756,0,0,1,.173,1.173,1.3,1.3,0,0,1-.569-.559.077.077,0,0,0-.145.042,2.336,2.336,0,0,1,.01.37.763.763,0,0,1-.247-.262.075.075,0,0,0-.077-.045.077.077,0,0,0-.067.059c-.019.083-.045.18-.066.246a.664.664,0,0,1-.22-.2.077.077,0,0,0-.144.032c0,.089-.017.226-.032.32a1.741,1.741,0,0,1-.243-.175.076.076,0,0,0-.073-.017.077.077,0,0,0-.052.054l-.039.149a.829.829,0,0,1-.217-.172.077.077,0,0,0-.119.1,1.123,1.123,0,0,0,.353.258.078.078,0,0,0,.065,0,.077.077,0,0,0,.041-.05l.034-.128a2.528,2.528,0,0,0,.264.169.078.078,0,0,0,.063,0,.077.077,0,0,0,.045-.044,1.265,1.265,0,0,0,.048-.274,1.227,1.227,0,0,0,.229.154.077.077,0,0,0,.1-.029,1.013,1.013,0,0,0,.069-.195,1.333,1.333,0,0,0,.3.241.078.078,0,0,0,.064.006.077.077,0,0,0,.046-.045.808.808,0,0,0,.032-.251,1.5,1.5,0,0,0,.434.358s0,0,0,.005a3.8,3.8,0,0,0,.061.475,1.578,1.578,0,0,1-.526-.325.077.077,0,0,0-.124.027l-.059.146-.246-.179a.077.077,0,0,0-.121.052l-.022.171a1.066,1.066,0,0,1-.164-.142.077.077,0,0,0-.115.1,1.537,1.537,0,0,0,.3.238.077.077,0,0,0,.116-.056l.022-.166.221.161a.077.077,0,0,0,.116-.033l.055-.136a1.715,1.715,0,0,0,.4.244.979.979,0,0,0,.094.411,1.371,1.371,0,0,1-.564-.13.076.076,0,0,0-.1.027l-.111.171-.459-.308a.075.075,0,0,0-.066-.009.077.077,0,0,0-.048.046l-.071.192c-.084-.095-.206-.228-.25-.264a.077.077,0,0,0-.1.008,1.689,1.689,0,0,1-.237.206l-.089-.238a.077.077,0,0,0-.144.053l.121.326a.077.077,0,0,0,.109.04,1.532,1.532,0,0,0,.3-.228c.071.073.191.207.267.294a.077.077,0,0,0,.13-.024l.081-.221.443.3a.077.077,0,0,0,.043.013l.015,0a.076.076,0,0,0,.049-.033l.117-.181a1.525,1.525,0,0,0,.535.116.076.076,0,0,0,.017.052c.019.023.057.068.1.115l-.192,0a.077.077,0,0,0-.075.084l.029.3a1.28,1.28,0,0,1-.383-.141.076.076,0,0,0-.083,0l-.335.211-.172-.467a.077.077,0,0,0-.068-.05.073.073,0,0,0-.073.042l-.188.376-.132-.21a.077.077,0,0,0-.063-.036.08.08,0,0,0-.065.033,1.941,1.941,0,0,1-.23.265l-.087-.276a.077.077,0,0,0-.136-.02,2.46,2.46,0,0,1-.215.265l-.022-.342a.077.077,0,0,0-.113-.063c-.033.018-.094.05-.158.081.09-.187.192-.45.134-.586a.161.161,0,0,0-.089-.084l-.007-.006-.011,0-.007,0h-.013a.263.263,0,0,0-.216.037.281.281,0,0,0-.087.11.624.624,0,0,1-.142-.2.076.076,0,0,0-.07-.047A.075.075,0,0,0,234.3,172.23Zm-.583-.855a2.785,2.785,0,0,0,1.063.224c.067.083.132.162.184.224a2.582,2.582,0,0,0-.36.03l.018-.023a.077.077,0,0,0-.055-.125,5.3,5.3,0,0,1-1.1-.214h0c-.085-.026-.135-.07-.14-.123a.094.094,0,0,1,.034-.084C233.44,171.242,233.614,171.326,233.715,171.375Zm.724.043a.076.076,0,0,0,.032-.049l.022-.144c.046.067.1.141.159.215C234.593,171.436,234.52,171.429,234.439,171.418Zm-.135-.022-.115-.024a.076.076,0,0,0-.006-.05l-.006-.014A.9.9,0,0,0,234.3,171.4Zm1.011-.837a.121.121,0,0,1-.153.022.119.119,0,0,1-.048-.118.092.092,0,0,1,.055-.077.078.078,0,0,1,.022,0,.418.418,0,0,1,.149.047h0A.1.1,0,0,1,235.315,170.56Zm2.914,1.147a.077.077,0,0,0,.117-.055c.013-.1.036-.156.07-.176.061-.037.209.019.38.084a4.025,4.025,0,0,0,.477.156,3.92,3.92,0,0,0,1.55-.073c.169-.03.332-.059.483-.079a.692.692,0,0,1,.72.3c.061.154-.033.331-.264.5-.641.466-3.709.259-4.022.237a.6.6,0,0,1-.125-.348c.051.016.084.024.089.025l.016,0a.077.077,0,0,0,.072-.1,2.4,2.4,0,0,1-.085-.495.075.075,0,0,0,.06-.008.077.077,0,0,0,.036-.056,2.216,2.216,0,0,0-.15-1.322.645.645,0,0,0,.057-.049,1.294,1.294,0,0,0,.3.761A.557.557,0,0,0,238.229,171.707Z" transform="translate(-217.947 -75.692)"/><path class="a" d="M198.355,127.933c-.03-.617-.176-1.616-.645-1.639a.484.484,0,0,0-.4.157.079.079,0,0,1-.065.03l-.179-.011.032.119a.077.077,0,0,1-.025.079.419.419,0,0,0-.11.509c.117.213.5.314.774.388a1.874,1.874,0,0,1,.3.1A.953.953,0,0,1,198.355,127.933Z" transform="translate(-185.76 -35.864)"/><path class="e" d="M195.163,123.587a.651.651,0,0,0-.5.185l-.248-.015a.077.077,0,0,0-.079.1l.048.177a.556.556,0,0,0-.109.666c.149.271.565.381.869.462a1.825,1.825,0,0,1,.272.085.98.98,0,0,1,.4.445.077.077,0,0,0,.069.044l.017,0a.077.077,0,0,0,.06-.074C195.961,125.574,195.971,123.626,195.163,123.587Zm.02,1.424c-.277-.074-.656-.175-.774-.388a.419.419,0,0,1,.11-.509.077.077,0,0,0,.025-.079l-.032-.119.179.011a.079.079,0,0,0,.065-.03.484.484,0,0,1,.4-.157c.469.023.615,1.021.645,1.639a.953.953,0,0,0-.318-.273A1.857,1.857,0,0,0,195.183,125.011Z" transform="translate(-183.207 -33.31)"/><path class="a" d="M448.542,127.933c.03-.617.176-1.616.645-1.639a.484.484,0,0,1,.4.157.079.079,0,0,0,.065.03l.179-.011-.032.119a.077.077,0,0,0,.025.079.419.419,0,0,1,.11.509c-.117.213-.5.314-.774.388a1.876,1.876,0,0,0-.3.1A.953.953,0,0,0,448.542,127.933Z" transform="translate(-423.136 -35.864)"/><path class="e" d="M445.728,125.659a.077.077,0,0,0,.06.074l.017,0a.076.076,0,0,0,.069-.044.98.98,0,0,1,.4-.445,1.819,1.819,0,0,1,.272-.085c.3-.081.72-.192.869-.462a.556.556,0,0,0-.109-.666l.048-.177a.077.077,0,0,0-.079-.1l-.248.015a.652.652,0,0,0-.5-.185C445.717,123.628,445.727,125.576,445.728,125.659Zm.477-.551a.953.953,0,0,0-.318.273c.03-.617.176-1.616.645-1.639a.484.484,0,0,1,.4.157.079.079,0,0,0,.065.03l.179-.011-.032.119a.077.077,0,0,0,.025.079.418.418,0,0,1,.11.509c-.117.213-.5.314-.774.388A1.876,1.876,0,0,0,446.205,125.108Z" transform="translate(-420.481 -33.312)"/><path class="a" d="M448.542,356.76c.03.617.176,1.616.645,1.639a.484.484,0,0,0,.4-.157.079.079,0,0,1,.065-.03l.179.011-.032-.119a.077.077,0,0,1,.025-.079.419.419,0,0,0,.11-.509c-.117-.213-.5-.314-.774-.388a1.881,1.881,0,0,1-.3-.1A.951.951,0,0,1,448.542,356.76Z" transform="translate(-423.136 -253.277)"/><path class="e" d="M446.526,352.658a.652.652,0,0,0,.5-.185l.248.015a.077.077,0,0,0,.079-.1l-.048-.177a.556.556,0,0,0,.109-.666c-.149-.271-.565-.381-.868-.462a1.822,1.822,0,0,1-.272-.085.979.979,0,0,1-.4-.445.077.077,0,0,0-.069-.044l-.017,0a.077.077,0,0,0-.06.074C445.729,350.671,445.719,352.619,446.526,352.658Zm-.019-1.424c.277.074.656.175.774.388a.419.419,0,0,1-.11.509.077.077,0,0,0-.025.079l.032.119-.179-.011a.079.079,0,0,0-.065.03.484.484,0,0,1-.4.157c-.469-.023-.615-1.021-.645-1.639a.952.952,0,0,0,.318.273A1.857,1.857,0,0,0,446.507,351.234Z" transform="translate(-420.483 -247.383)"/><path class="a" d="M198.355,356.76c-.03.617-.176,1.616-.645,1.639a.484.484,0,0,1-.4-.157.079.079,0,0,0-.065-.03l-.179.011.032-.119a.077.077,0,0,0-.025-.079.419.419,0,0,1-.11-.509c.117-.213.5-.314.774-.388a1.879,1.879,0,0,0,.3-.1A.951.951,0,0,0,198.355,356.76Z" transform="translate(-185.76 -253.277)"/><path class="e" d="M195.961,350.586a.077.077,0,0,0-.06-.074l-.017,0a.077.077,0,0,0-.069.044.98.98,0,0,1-.4.445,1.825,1.825,0,0,1-.272.085c-.3.081-.72.191-.869.462a.556.556,0,0,0,.109.666l-.048.177a.077.077,0,0,0,.079.1l.248-.015a.652.652,0,0,0,.5.185C195.971,352.617,195.962,350.669,195.961,350.586Zm-.477.551a.954.954,0,0,0,.318-.273c-.03.617-.176,1.616-.645,1.639a.484.484,0,0,1-.4-.157.079.079,0,0,0-.065-.03l-.179.011.032-.119a.077.077,0,0,0-.025-.079.419.419,0,0,1-.11-.509c.117-.213.5-.314.774-.388A1.891,1.891,0,0,0,195.483,351.137Z" transform="translate(-183.207 -247.381)"/></g></svg>