<svg xmlns="http://www.w3.org/2000/svg" width="24.836" height="25.003" viewBox="0 0 24.836 25.003"><defs><style>.a{fill:#d9c6f7;}.b{fill:#020288;}</style></defs><g transform="translate(-1.711)"><g transform="translate(5.801 4.106)"><path class="a" d="M102.116,92.476a2.489,2.489,0,0,0-2.353-2.5,2.513,2.513,0,0,0-.086-3.442,2.464,2.464,0,0,0-3.414-.087,2.477,2.477,0,0,0-4.95,0,2.464,2.464,0,0,0-3.414.087,2.513,2.513,0,0,0-.086,3.442,2.5,2.5,0,0,0,0,4.99,2.513,2.513,0,0,0,.086,3.442,2.464,2.464,0,0,0,3.414.087,2.477,2.477,0,0,0,4.95,0,2.464,2.464,0,0,0,3.414-.087,2.513,2.513,0,0,0,.086-3.442A2.489,2.489,0,0,0,102.116,92.476Z" transform="translate(-85.46 -84.08)"/></g><g transform="translate(1.711)"><path class="b" d="M26.547,12.5a5.968,5.968,0,0,0-1.9-4.38,5.97,5.97,0,0,0-1.727-4.455A5.876,5.876,0,0,0,18.492,1.92a5.915,5.915,0,0,0-8.725,0c-.075,0-.151,0-.226,0a5.874,5.874,0,0,0-4.2,1.752A5.97,5.97,0,0,0,3.615,8.122a5.988,5.988,0,0,0,0,8.759,5.97,5.97,0,0,0,1.727,4.455,5.875,5.875,0,0,0,4.425,1.747,5.915,5.915,0,0,0,8.725,0c.075,0,.151,0,.226,0a5.874,5.874,0,0,0,4.2-1.752,5.97,5.97,0,0,0,1.727-4.454A5.968,5.968,0,0,0,26.547,12.5Zm-2.724,3.8a.488.488,0,0,0-.17.411,5,5,0,0,1-1.432,3.933,4.9,4.9,0,0,1-3.505,1.463c-.132,0-.265-.005-.4-.016a.489.489,0,0,0-.412.172,4.939,4.939,0,0,1-7.56,0,.488.488,0,0,0-.373-.174l-.039,0c-.131.01-.264.016-.4.016a4.9,4.9,0,0,1-3.5-1.463A5,5,0,0,1,4.6,16.714a.488.488,0,0,0-.17-.411,5.01,5.01,0,0,1,0-7.6.488.488,0,0,0,.17-.411A5,5,0,0,1,6.036,4.356a4.9,4.9,0,0,1,3.5-1.463c.132,0,.265.005.4.016a.489.489,0,0,0,.412-.172,4.939,4.939,0,0,1,7.56,0,.489.489,0,0,0,.412.172c.131-.01.264-.016.4-.016a4.9,4.9,0,0,1,3.5,1.463,5,5,0,0,1,1.432,3.933.488.488,0,0,0,.17.411,5.01,5.01,0,0,1,0,7.6Z" transform="translate(-1.711)"/><path class="b" d="M222.739,179.072a.488.488,0,0,0-.639.261l-2.687,6.4a.488.488,0,1,0,.9.378l2.687-6.4A.488.488,0,0,0,222.739,179.072Z" transform="translate(-208.744 -170.291)"/><path class="b" d="M187.882,174.794a1.686,1.686,0,1,0-1.676,1.868A1.782,1.782,0,0,0,187.882,174.794Zm-1.676.891a.918.918,0,1,1,.7-.891A.814.814,0,0,1,186.207,175.685Z" transform="translate(-175.603 -164.481)"/><path class="b" d="M260.52,262.569a1.879,1.879,0,1,0,1.676,1.868A1.782,1.782,0,0,0,260.52,262.569Zm0,2.759a.918.918,0,1,1,.7-.891A.814.814,0,0,1,260.52,265.328Z" transform="translate(-246.287 -249.746)"/></g></g></svg>