<svg xmlns="http://www.w3.org/2000/svg" width="19.75" height="25.003" viewBox="0 0 19.75 25.003"><defs><style>.a{fill:#020288;}.b{fill:#ddc5fb;fill-rule:evenodd;}</style></defs><g transform="translate(-53.792 0)"><path class="a" d="M137.5.065a.488.488,0,0,0-.667.179l-3.875,6.713a.489.489,0,0,0-.567-.057l-.519.3-.5-.863.519-.3a.488.488,0,1,0-.488-.846l-.519.3-.5-.863.519-.3a.488.488,0,1,0-.488-.846l-.519.3-.5-.863.519-.3a.488.488,0,0,0-.488-.846l-.519.3-.5-.863.519-.3a.488.488,0,0,0-.488-.846l-.519.3-.07-.121a.488.488,0,0,0-.667-.179,2.536,2.536,0,0,0-.92,3.326l3.931,8.343-2.224,3.853a.488.488,0,0,0,.846.488l8.571-14.845a1.629,1.629,0,0,1,.145,1.744L132,14.737a4.09,4.09,0,0,0-2.312,1.837.488.488,0,0,0,.846.488,3.128,3.128,0,0,1,1.815-1.411,3.128,3.128,0,0,1,1.815,1.411.488.488,0,0,0,.846-.488,4.055,4.055,0,0,0-1.986-1.718l.964-2.046,1.885,3.265a.488.488,0,1,0,.846-.488l-2.224-3.853,3.931-8.344A2.536,2.536,0,0,0,137.5.065Zm-10.348,2.91a1.629,1.629,0,0,1,.145-1.744L131.784,9l-.987,1.709Z" transform="translate(-68.682 0)"/><g transform="translate(53.792 15.462)"><path class="b" d="M290.294,317.8a4.193,4.193,0,1,1-2.99,1.726l-.679-1.176,2.99-1.726Zm-1.079,5.036a1.726,1.726,0,1,0,.632-2.358A1.728,1.728,0,0,0,289.214,322.836Z" transform="translate(-275.153 -316.624)"/><path class="b" d="M58.4,317.8l.679-1.176,2.99,1.726-.679,1.176A4.193,4.193,0,1,1,58.4,317.8Zm.448,2.678a1.726,1.726,0,0,0-1.726,2.99A1.728,1.728,0,0,0,58.848,320.475Z" transform="translate(-53.792 -316.622)"/></g></g></svg>