<svg xmlns="http://www.w3.org/2000/svg" width="25.003" height="25.003" viewBox="0 0 25.003 25.003"><defs><style>.a{fill:#e2c4ff;}.b{fill:#020288;}</style></defs><g transform="translate(3.43 11.766)"><rect class="a" width="6.374" height="2.452" transform="translate(11.278)"/><rect class="a" width="7.845" height="2.452" transform="translate(0 6.374)"/><rect class="a" width="7.845" height="2.452" transform="translate(10.297 6.374)"/></g><g transform="translate(0 0)"><path class="b" d="M-9.512-10H12.554a.488.488,0,0,1,.488.488v8.336a.488.488,0,0,1-.488.488H-9.512A.488.488,0,0,1-10-1.176V-9.512A.488.488,0,0,1-9.512-10Zm21.577.977H-9.023v7.359H12.065Z" transform="translate(10.981 25.691)"/><path class="b" d="M24.515,4.9H.488a.488.488,0,0,1-.437-.707l1.555-3.11A1.949,1.949,0,0,1,3.359,0H21.645A1.949,1.949,0,0,1,23.4,1.083l1.555,3.11a.488.488,0,0,1-.437.707ZM1.279,3.923H23.725l-1.2-2.4a.977.977,0,0,0-.879-.543H3.359a.977.977,0,0,0-.879.543Z" transform="translate(0 0)"/><path class="b" d="M1.99,84.245A1.992,1.992,0,0,1,0,82.255v-1.44a.488.488,0,0,1,.488-.488h3a.488.488,0,0,1,.488.488v1.44A1.992,1.992,0,0,1,1.99,84.245ZM.977,81.3v.952a1.013,1.013,0,0,0,2.027,0V81.3Z" transform="translate(0 -76.403)"/><path class="b" d="M63.49,84.245a1.992,1.992,0,0,1-1.99-1.99v-1.44a.488.488,0,0,1,.488-.488h3a.488.488,0,0,1,.488.488v1.44A1.992,1.992,0,0,1,63.49,84.245ZM62.477,81.3v.952a1.013,1.013,0,0,0,2.027,0V81.3Z" transform="translate(-58.497 -76.403)"/><path class="b" d="M124.99,84.245a1.992,1.992,0,0,1-1.99-1.99v-1.44a.488.488,0,0,1,.488-.488h3a.488.488,0,0,1,.488.488v1.44A1.992,1.992,0,0,1,124.99,84.245ZM123.977,81.3v.952a1.013,1.013,0,0,0,2.027,0V81.3Z" transform="translate(-116.993 -76.403)"/><path class="b" d="M186.49,84.245a1.992,1.992,0,0,1-1.99-1.99v-1.44a.488.488,0,0,1,.488-.488h3a.488.488,0,0,1,.488.488v1.44A1.992,1.992,0,0,1,186.49,84.245ZM185.477,81.3v.952a1.013,1.013,0,1,0,2.027,0V81.3Z" transform="translate(-175.49 -76.403)"/><path class="b" d="M247.99,84.245a1.992,1.992,0,0,1-1.99-1.99v-1.44a.488.488,0,0,1,.488-.488h3a.488.488,0,0,1,.488.488v1.44A1.992,1.992,0,0,1,247.99,84.245ZM246.977,81.3v.952a1.013,1.013,0,1,0,2.027,0V81.3Z" transform="translate(-233.987 -76.403)"/><path class="b" d="M309.49,84.245a1.992,1.992,0,0,1-1.99-1.99v-1.44a.488.488,0,0,1,.488-.488h3a.488.488,0,0,1,.488.488v1.44A1.992,1.992,0,0,1,309.49,84.245ZM308.477,81.3v.952a1.013,1.013,0,1,0,2.027,0V81.3Z" transform="translate(-292.483 -76.403)"/><path class="b" d="M370.99,84.245a1.992,1.992,0,0,1-1.99-1.99v-1.44a.488.488,0,0,1,.488-.488h3a.488.488,0,0,1,.488.488v1.44A1.992,1.992,0,0,1,370.99,84.245ZM369.977,81.3v.952a1.013,1.013,0,1,0,2.027,0V81.3Z" transform="translate(-350.98 -76.403)"/><path class="b" d="M432.49,84.245a1.992,1.992,0,0,1-1.99-1.99v-1.44a.488.488,0,0,1,.488-.488h3a.488.488,0,0,1,.488.488v1.44A1.992,1.992,0,0,1,432.49,84.245ZM431.477,81.3v.952a1.013,1.013,0,1,0,2.027,0V81.3Z" transform="translate(-409.477 -76.403)"/><path class="b" d="M23.534,284.08H1.469a1.469,1.469,0,1,1,0-2.938H23.534a1.469,1.469,0,1,1,0,2.938ZM1.469,282.119a.492.492,0,0,0,0,.985H23.534a.492.492,0,1,0,0-.985Z" transform="translate(0 -267.412)"/><path class="b" d="M-9.512-2.158A.488.488,0,0,1-10-2.647V-9.512A.488.488,0,0,1-9.512-10a.488.488,0,0,1,.488.488v6.865A.488.488,0,0,1-9.512-2.158Z" transform="translate(32.556 16.865)"/><path class="b" d="M-9.512-2.158A.488.488,0,0,1-10-2.647V-9.512A.488.488,0,0,1-9.512-10a.488.488,0,0,1,.488.488v6.865A.488.488,0,0,1-9.512-2.158Z" transform="translate(11.471 16.865)"/><path class="b" d="M72,230.939a1.716,1.716,0,0,1,1.714,1.714v1.226a.488.488,0,0,1-.488.488H70.774a.488.488,0,0,1-.488-.488v-1.226A1.716,1.716,0,0,1,72,230.939Zm.738,2.452v-.737a.738.738,0,1,0-1.475,0v.737Z" transform="translate(-66.854 -219.661)"/><path class="b" d="M162.367,230.939a1.716,1.716,0,0,1,1.714,1.714v1.226a.488.488,0,0,1-.488.488h-2.452a.488.488,0,0,1-.488-.488v-1.226A1.716,1.716,0,0,1,162.367,230.939Zm.738,2.452v-.737a.738.738,0,1,0-1.475,0v.737Z" transform="translate(-152.808 -219.661)"/><path class="b" d="M12.554-9.023H-9.512A.488.488,0,0,1-10-9.512.488.488,0,0,1-9.512-10H12.554a.488.488,0,0,1,.488.488A.488.488,0,0,1,12.554-9.023Z" transform="translate(10.981 32.065)"/></g></svg>